<svg width="372" height="329" viewBox="0 0 372 329" fill="none" xmlns="http://www.w3.org/2000/svg">
<path d="M209.263 235.763C209.263 235.763 243.161 81.0186 261.176 71.1291C279.191 61.2396 279.5 90.0134 277.276 104.207C275.563 115.131 257.885 175.914 257.885 175.914L257.746 214.067C257.746 214.067 257.05 264.675 238.482 273.997C179.092 303.813 201.26 252.594 209.263 235.763Z" fill="url(#paint0_linear_1_4)"/>
<path d="M169.242 231.534C169.242 231.534 194.619 25.9882 216.502 13.351C238.385 0.713839 242.157 30.998 240.036 53.0897C237.916 75.1813 218.662 156.811 229.349 160.656C240.036 164.5 260.832 176.416 261.826 205.005C262.63 228.138 245.524 287.144 222.826 299.005C150.224 336.945 161.576 253.756 169.242 231.534Z" fill="url(#paint1_linear_1_4)"/>
<path d="M146.199 242.219C146.199 242.219 129.274 27.6675 148.938 10.3618C168.602 -6.94384 179.296 23.3724 182.086 46.4543C184.876 69.5361 183.551 154.373 193.525 158.187C203.5 162 233.87 169.877 241.326 199.005C247.359 222.574 236.891 277.834 216.215 294.505C150.079 347.831 143.313 266.535 146.199 242.219Z" fill="url(#paint2_linear_1_4)"/>
<path d="M119.367 260.862C119.367 260.862 68.0982 69.0401 82.8239 48.5044C97.5497 27.9688 113.473 54.0038 120.649 75.0045C127.826 96.0051 140.281 169.005 153.5 171.5C166.719 173.995 192.307 176.364 205 202C215.271 222.743 222.834 263.966 210.413 286.362C177.413 345.862 121.545 284.268 119.367 260.862Z" fill="url(#paint3_linear_1_4)"/>
<path d="M94.0647 269.005C94.0647 269.005 33.8398 165.192 38.4538 140.561C43.0677 115.93 66.1378 127.174 77.9289 140.561C89.72 153.947 103.705 201.067 106.638 201.067C109.571 201.067 144.473 198.951 165.699 209.005C184.699 218.005 198.91 243.555 200.699 269.005C206.739 354.961 103.906 289.538 94.0647 269.005Z" fill="url(#paint4_linear_1_4)"/>
<defs>
<linearGradient id="paint0_linear_1_4" x1="195.592" y1="124.568" x2="286.201" y2="235.492" gradientUnits="userSpaceOnUse">
<stop stop-color="#8C4411"/>
<stop offset="1" stop-color="#3B2801"/>
</linearGradient>
<linearGradient id="paint1_linear_1_4" x1="222" y1="30.5" x2="196.5" y2="298" gradientUnits="userSpaceOnUse">
<stop stop-color="#A0522D"/>
<stop offset="1" stop-color="#8C4411"/>
</linearGradient>
<linearGradient id="paint2_linear_1_4" x1="246.48" y1="66.01" x2="102.529" y2="262.629" gradientUnits="userSpaceOnUse">
<stop stop-color="#A76F00"/>
<stop offset="1" stop-color="#A0522D"/>
</linearGradient>
<linearGradient id="paint3_linear_1_4" x1="184.882" y1="79.4965" x2="97.3104" y2="280.835" gradientUnits="userSpaceOnUse">
<stop stop-color="#D99100"/>
<stop offset="1" stop-color="#A76F00"/>
</linearGradient>
<linearGradient id="paint4_linear_1_4" x1="119.578" y1="126.005" x2="119.578" y2="312.193" gradientUnits="userSpaceOnUse">
<stop stop-color="#FED801"/>
<stop offset="1" stop-color="#D99100"/>
</linearGradient>
</defs>
</svg>
